<svg width="36" height="36" viewBox="0 0 36 36" fill="none" xmlns="http://www.w3.org/2000/svg">
<path fill-rule="evenodd" clip-rule="evenodd" d="M17.7799 0C13.5575 0.00224246 9.47356 1.53303 6.25831 4.31863C3.04306 7.10424 0.906188 10.963 0.22978 15.205C-0.446628 19.4469 0.381529 23.7955 2.56619 27.473C4.75085 31.1505 8.14953 33.9173 12.1545 35.2785C13.0381 35.4463 13.3709 34.8858 13.3709 34.4092C13.3709 33.9326 13.3532 32.5507 13.3473 31.0399C8.39936 32.134 7.35382 28.9026 7.35382 28.9026C6.54682 26.8043 5.38051 26.2528 5.38051 26.2528C3.76653 25.1317 5.50128 25.1527 5.50128 25.1527C7.28903 25.2816 8.22856 27.0202 8.22856 27.0202C9.81309 29.7869 12.3901 28.9866 13.4033 28.519C13.5623 27.3469 14.0248 26.5495 14.5343 26.0969C10.5818 25.6413 6.42901 24.0885 6.42901 17.1521C6.40451 15.3532 7.0604 13.6136 8.26095 12.2931C8.07835 11.8374 7.46868 9.99692 8.43471 7.49694C8.43471 7.49694 9.92795 7.01134 13.3267 9.35244C16.242 8.54104 19.3178 8.54104 22.2331 9.35244C25.629 7.01134 27.1192 7.49694 27.1192 7.49694C28.0882 9.99093 27.4786 11.8314 27.2959 12.2931C28.5003 13.6138 29.1576 15.3565 29.1308 17.1581C29.1308 24.1095 24.9692 25.6413 21.0108 26.0879C21.647 26.6515 22.2154 27.7516 22.2154 29.4422C22.2154 31.8642 22.1948 33.8127 22.1948 34.4092C22.1948 34.8918 22.5158 35.4553 23.4171 35.2785C27.4226 33.9171 30.8216 31.1499 33.0062 27.4717C35.1908 23.7936 36.0185 19.4444 35.3414 15.202C34.6642 10.9597 32.5262 7.10085 29.3099 4.31572C26.0936 1.5306 22.0087 0.000821078 17.7858 0H17.7799Z" fill="#191717"/>
</svg>
