<svg width="36" height="37" viewBox="0 0 36 37" fill="none" xmlns="http://www.w3.org/2000/svg">
<path d="M32.9465 0H2.62594C1.9295 0 1.26158 0.283189 0.76912 0.787269C0.276661 1.29135 0 1.97503 0 2.6879V33.7239C0 34.4368 0.276661 35.1205 0.76912 35.6246C1.26158 36.1287 1.9295 36.4118 2.62594 36.4118H32.9465C33.6429 36.4118 34.3109 36.1287 34.8033 35.6246C35.2958 35.1205 35.5724 34.4368 35.5724 33.7239V2.6879C35.5724 1.97503 35.2958 1.29135 34.8033 0.787269C34.3109 0.283189 33.6429 0 32.9465 0ZM10.6026 31.0183H5.25435V13.6292H10.6026V31.0183ZM7.92475 11.2194C7.31809 11.2159 6.72603 11.0285 6.2233 10.6809C5.72057 10.3333 5.3297 9.84111 5.10002 9.26634C4.87033 8.69158 4.81213 8.06005 4.93276 7.45146C5.05338 6.84287 5.34743 6.2845 5.77779 5.8468C6.20815 5.40911 6.75553 5.11172 7.35085 4.99216C7.94617 4.87259 8.56275 4.93622 9.12278 5.17501C9.68281 5.4138 10.1612 5.81705 10.4975 6.33386C10.8339 6.85067 11.0131 7.45789 11.0126 8.07888C11.0184 8.49463 10.9423 8.90731 10.7888 9.29231C10.6354 9.67731 10.4079 10.0268 10.1197 10.3198C9.83157 10.6129 9.48873 10.8436 9.11162 10.9981C8.73452 11.1527 8.33087 11.2279 7.92475 11.2194ZM30.3156 31.0335H24.9699V21.5336C24.9699 18.7319 23.8064 17.8671 22.3044 17.8671C20.7185 17.8671 19.1622 19.0909 19.1622 21.6044V31.0335H13.814V13.6418H18.9572V16.0516H19.0263C19.5426 14.982 21.3509 13.1538 24.1102 13.1538C27.0943 13.1538 30.3181 14.9668 30.3181 20.2768L30.3156 31.0335Z" fill="#0A66C2"/>
</svg>
